<svg xmlns="http://www.w3.org/2000/svg" width="2600" height="1290" viewBox="0 195 2600 1290"><defs ><symbol id="prop-sea-basket" viewBox="0 0 100 100"><path d="M9 48Q50 35 91 48L80 92H22Z" fill="#ead8aa" stroke="#183f49" stroke-width="3" stroke-linecap="round" stroke-linejoin="round"></path><line x1="17" y1="58" x2="85" y2="58" stroke="#82644b" stroke-width="3" stroke-linecap="round"></line><line x1="17" y1="68" x2="85" y2="68" stroke="#82644b" stroke-width="3" stroke-linecap="round"></line><line x1="17" y1="78" x2="85" y2="78" stroke="#82644b" stroke-width="3" stroke-linecap="round"></line><line x1="17" y1="87" x2="85" y2="87" stroke="#82644b" stroke-width="3" stroke-linecap="round"></line><path d="M27 44q-5-50 44 0" fill="none" stroke="#82644b" stroke-width="5" stroke-linecap="round" stroke-linejoin="round"></path><path d="M65.0 66.0L64.5 68.8L63.5 71.4L62.1 73.8L60.2 75.8L58.0 77.4L55.6 78.5L53.1 79.2L50.5 79.3L48.0 79.0L45.6 78.2L43.5 76.9L41.7 75.3L40.2 73.5L39.2 71.4L38.6 69.2L38.4 66.9L38.6 64.7L39.3 62.6L40.3 60.7L41.6 59.1L43.2 57.8L45.0 56.9L46.9 56.3L48.8 56.1L50.7 56.2L52.5 56.8L54.1 57.6L55.5 58.7L56.7 60.0L57.5 61.5L58.0 63.1L58.2 64.7L58.1 66.3L57.7 67.8L57.0 69.1L56.2 70.3L55.1 71.2L53.9 71.9L52.6 72.4L51.3 72.5L50.0 72.5L48.8 72.1L47.8 71.6L46.9 70.9L46.1 70.1L45.6 69.1L45.3 68.2L45.1 67.2L45.2 66.2L45.5 65.3L45.9 64.5L46.4 63.9L47.0 63.4L47.7 63.0L48.4 62.8L49.1 62.8L49.7 62.9L50.3 63.1L50.8 63.4L51.2 63.8L51.4 64.2L51.6 64.7L51.6 65.1L51.6 65.5" fill="none" stroke="#183f49" stroke-width="2" stroke-linecap="round" stroke-linejoin="round"></path></symbol><symbol id="prop-sea-crate" viewBox="0 0 100 100"><rect x="7" y="28" width="86" height="68" fill="#82644b" stroke="#183f49" stroke-width="3" rx="3"></rect><line x1="12" y1="38" x2="88" y2="38" stroke="#ead8aa" stroke-width="2" stroke-linecap="round"></line><line x1="12" y1="53" x2="88" y2="53" stroke="#ead8aa" stroke-width="2" stroke-linecap="round"></line><line x1="12" y1="70" x2="88" y2="70" stroke="#ead8aa" stroke-width="2" stroke-linecap="round"></line><line x1="12" y1="86" x2="88" y2="86" stroke="#ead8aa" stroke-width="2" stroke-linecap="round"></line><line x1="20" y1="28" x2="20" y2="96" stroke="#b89857" stroke-width="7" stroke-linecap="round"></line><line x1="80" y1="28" x2="80" y2="96" stroke="#b89857" stroke-width="7" stroke-linecap="round"></line><path d="M68.0 65.0L67.4 68.4L66.2 71.5L64.5 74.4L62.3 76.8L59.6 78.7L56.8 80.1L53.7 80.8L50.6 81.0L47.6 80.6L44.8 79.6L42.2 78.1L40.0 76.2L38.3 74.0L37.0 71.5L36.3 68.8L36.0 66.1L36.3 63.5L37.1 61.0L38.3 58.7L40.0 56.8L41.9 55.2L44.0 54.0L46.3 53.3L48.6 53.1L50.9 53.3L53.0 53.9L55.0 54.9L56.6 56.2L58.0 57.8L59.0 59.6L59.6 61.5L59.9 63.4L59.7 65.3L59.3 67.1L58.5 68.7L57.4 70.1L56.1 71.3L54.7 72.1L53.1 72.6L51.6 72.8L50.0 72.7L48.6 72.4L47.3 71.7L46.2 70.9L45.3 69.9L44.7 68.8L44.3 67.6L44.2 66.4L44.3 65.3L44.6 64.2L45.0 63.3L45.7 62.5L46.4 61.9L47.2 61.4L48.1 61.2L48.9 61.2L49.7 61.3L50.4 61.5L51.0 61.9L51.4 62.4L51.7 62.9L51.9 63.4L52.0 63.9L51.9 64.4" fill="none" stroke="#ead8aa" stroke-width="3" stroke-linecap="round" stroke-linejoin="round"></path></symbol><symbol id="prop-sea-pearl" viewBox="0 0 100 100"><ellipse cx="50" cy="60" rx="30" ry="29" fill="#fff6df" stroke="#b89857" stroke-width="3"></ellipse><ellipse cx="40" cy="48" rx="10" ry="6" fill="#ffffff" stroke-width="2"></ellipse><path d="M17 83q34 23 67 0" fill="none" stroke="#297989" stroke-width="7" stroke-linecap="round" stroke-linejoin="round"></path></symbol><symbol id="prop-sea-lantern" viewBox="0 0 100 100"><path d="M35 22q15-33 30 0" fill="none" stroke="#b89857" stroke-width="4" stroke-linecap="round" stroke-linejoin="round"></path><ellipse cx="50" cy="58" rx="30" ry="35" fill="#297989" stroke="#183f49" stroke-width="3"></ellipse><ellipse cx="50" cy="58" rx="21" ry="25" fill="#8be4d3" stroke-width="2"></ellipse><line x1="50" y1="26" x2="50" y2="91" stroke="#b89857" stroke-width="4" stroke-linecap="round"></line><rect x="23" y="23" width="54" height="9" fill="#b89857" stroke="#183f49" stroke-width="2" rx="4"></rect><rect x="25" y="86" width="50" height="8" fill="#b89857" stroke="#183f49" stroke-width="2" rx="4"></rect></symbol><symbol id="prop-sea-banner" viewBox="0 0 100 100"><line x1="16" y1="4" x2="16" y2="98" stroke="#82644b" stroke-width="5" stroke-linecap="round"></line><path d="M20 10H91V84L56 74L20 88Z" fill="#297989" stroke="#183f49" stroke-width="2" stroke-linecap="round" stroke-linejoin="round"></path><path d="M78.0 43.0L77.3 47.1L75.8 51.0L73.7 54.5L71.0 57.4L67.8 59.7L64.3 61.4L60.5 62.3L56.8 62.5L53.1 62.0L49.6 60.8L46.5 59.0L43.8 56.7L41.7 54.0L40.1 50.9L39.2 47.6L38.9 44.3L39.3 41.1L40.3 38.1L41.8 35.3L43.7 32.9L46.1 31.0L48.7 29.6L51.4 28.7L54.3 28.4L57.1 28.7L59.7 29.4L62.1 30.7L64.1 32.3L65.8 34.2L67.0 36.4L67.8 38.7L68.1 41.1L67.9 43.4L67.3 45.6L66.3 47.6L65.0 49.3L63.4 50.7L61.7 51.7L59.8 52.3L57.9 52.6L56.0 52.5L54.3 52.0L52.7 51.2L51.4 50.2L50.3 49.0L49.5 47.6L49.0 46.2L48.9 44.7L49.0 43.3L49.4 42.0L49.9 40.9L50.7 39.9L51.6 39.2L52.6 38.6L53.7 38.4L54.7 38.3L55.6 38.4L56.5 38.7L57.2 39.2L57.7 39.8L58.1 40.4L58.3 41.0L58.4 41.7L58.3 42.2" fill="none" stroke="#ead8aa" stroke-width="4" stroke-linecap="round" stroke-linejoin="round"></path></symbol><symbol id="prop-sea-buoy" viewBox="0 0 100 100"><line x1="49" y1="10" x2="49" y2="95" stroke="#82644b" stroke-width="4" stroke-linecap="round"></line><ellipse cx="50" cy="61" rx="27" ry="30" fill="#db8250" stroke="#183f49" stroke-width="3"></ellipse><rect x="24" y="50" width="52" height="12" fill="#ead8aa" stroke="#183f49" stroke-width="2" rx="4"></rect><path d="M49 12l36 4-36 22" fill="#297989" stroke="#183f49" stroke-width="2" stroke-linecap="round" stroke-linejoin="round"></path></symbol><symbol id="prop-sea-net" viewBox="0 0 100 100"><line x1="12" y1="9" x2="12" y2="97" stroke="#82644b" stroke-width="6" stroke-linecap="round"></line><line x1="88" y1="9" x2="88" y2="97" stroke="#82644b" stroke-width="6" stroke-linecap="round"></line><path d="M12 19Q50 34 88 19L79 83Q50 98 21 83Z" fill="none" stroke="#ead8aa" stroke-width="3" stroke-linecap="round" stroke-linejoin="round"></path><path d="M27 22L37 85M18 27Q50 41 84 27" fill="none" stroke="#ead8aa" stroke-width="2" stroke-linecap="round" stroke-linejoin="round"></path><path d="M42 22L52 85M18 42Q50 56 84 42" fill="none" stroke="#ead8aa" stroke-width="2" stroke-linecap="round" stroke-linejoin="round"></path><path d="M57 22L67 85M18 57Q50 71 84 57" fill="none" stroke="#ead8aa" stroke-width="2" stroke-linecap="round" stroke-linejoin="round"></path><path d="M72 22L82 85M18 72Q50 86 84 72" fill="none" stroke="#ead8aa" stroke-width="2" stroke-linecap="round" stroke-linejoin="round"></path></symbol><symbol id="prop-sea-kelp" viewBox="0 0 100 100"><rect x="9" y="72" width="82" height="25" fill="#82644b" stroke="#183f49" stroke-width="3" rx="4"></rect><path d="M35 73q-23 -21.349999999999998 2 -39.65t0 -21.349999999999998" fill="none" stroke="#668e59" stroke-width="5" stroke-linecap="round" stroke-linejoin="round"></path><path d="M35 73.0q-45 -4 -38 -35q39 2 38 35Z" fill="#668e59" stroke="#4e786c" stroke-width="1" stroke-linecap="round" stroke-linejoin="round"></path><path d="M35 60.8q45 -4 38 -35q-39 2 -38 35Z" fill="#668e59" stroke="#4e786c" stroke-width="1" stroke-linecap="round" stroke-linejoin="round"></path><path d="M35 48.6q-45 -4 -38 -35q39 2 38 35Z" fill="#668e59" stroke="#4e786c" stroke-width="1" stroke-linecap="round" stroke-linejoin="round"></path><path d="M35 36.4q45 -4 38 -35q-39 2 -38 35Z" fill="#668e59" stroke="#4e786c" stroke-width="1" stroke-linecap="round" stroke-linejoin="round"></path><path d="M66 75q-23 -18.9 2 -35.1t0 -18.9" fill="none" stroke="#668e59" stroke-width="5" stroke-linecap="round" stroke-linejoin="round"></path><path d="M66 75.0q-45 -4 -38 -35q39 2 38 35Z" fill="#668e59" stroke="#4e786c" stroke-width="1" stroke-linecap="round" stroke-linejoin="round"></path><path d="M66 64.2q45 -4 38 -35q-39 2 -38 35Z" fill="#668e59" stroke="#4e786c" stroke-width="1" stroke-linecap="round" stroke-linejoin="round"></path><path d="M66 53.4q-45 -4 -38 -35q39 2 38 35Z" fill="#668e59" stroke="#4e786c" stroke-width="1" stroke-linecap="round" stroke-linejoin="round"></path><path d="M66 42.6q45 -4 38 -35q-39 2 -38 35Z" fill="#668e59" stroke="#4e786c" stroke-width="1" stroke-linecap="round" stroke-linejoin="round"></path></symbol><symbol id="prop-sea-shell" viewBox="0 0 100 100"><path d="M50 92Q-8 72 12 27Q27 4 46 23Q70-4 89 24Q116 65 50 92Z" fill="#ead8aa" stroke="#b89857" stroke-width="3" stroke-linecap="round" stroke-linejoin="round"></path><path d="M50 90Q22 50 22 24" fill="none" stroke="#82644b" stroke-width="2" stroke-linecap="round" stroke-linejoin="round"></path><path d="M50 90Q39 50 39 24" fill="none" stroke="#82644b" stroke-width="2" stroke-linecap="round" stroke-linejoin="round"></path><path d="M50 90Q58 50 58 24" fill="none" stroke="#82644b" stroke-width="2" stroke-linecap="round" stroke-linejoin="round"></path><path d="M50 90Q76 50 76 24" fill="none" stroke="#82644b" stroke-width="2" stroke-linecap="round" stroke-linejoin="round"></path></symbol><symbol id="prop-sea-seat" viewBox="0 0 100 100"><path d="M9 56Q50 38 91 56L83 76H17Z" fill="#afbea2" stroke="#183f49" stroke-width="3" stroke-linecap="round" stroke-linejoin="round"></path><line x1="26" y1="76" x2="21" y2="98" stroke="#82644b" stroke-width="7" stroke-linecap="round"></line><line x1="75" y1="76" x2="81" y2="98" stroke="#82644b" stroke-width="7" stroke-linecap="round"></line><path d="M64.0 58.0L63.6 60.6L62.6 63.1L61.3 65.3L59.5 67.2L57.5 68.7L55.3 69.7L52.9 70.3L50.5 70.4L48.1 70.1L45.9 69.4L44.0 68.2L42.3 66.7L40.9 65.0L39.9 63.0L39.3 61.0L39.1 58.9L39.4 56.8L40.0 54.9L40.9 53.1L42.2 51.6L43.7 50.4L45.3 49.5L47.1 48.9L48.9 48.7L50.7 48.9L52.3 49.4L53.9 50.1L55.2 51.2L56.2 52.4L57.0 53.8L57.5 55.3L57.7 56.8L57.6 58.3L57.2 59.7L56.6 60.9L55.7 62.0L54.7 62.9L53.6 63.5L52.4 63.9L51.2 64.1L50.0 64.0L48.9 63.7L47.9 63.2L47.1 62.6L46.4 61.8L45.9 60.9L45.6 60.0L45.5 59.1L45.5 58.2L45.8 57.4L46.1 56.6L46.6 56.0L47.2 55.6L47.9 55.2L48.5 55.0L49.2 55.0L49.8 55.1L50.3 55.3L50.7 55.6L51.1 55.9L51.3 56.3L51.5 56.8L51.5 57.2L51.5 57.5" fill="none" stroke="#297989" stroke-width="2" stroke-linecap="round" stroke-linejoin="round"></path></symbol><symbol id="prop-sea-table" viewBox="0 0 100 100"><rect x="4" y="48" width="92" height="12" fill="#82644b" stroke="#183f49" stroke-width="3" rx="5"></rect><line x1="20" y1="60" x2="18" y2="96" stroke="#183f49" stroke-width="6" stroke-linecap="round"></line><line x1="80" y1="60" x2="83" y2="96" stroke="#183f49" stroke-width="6" stroke-linecap="round"></line><use href="#prop-sea-shell" x="54" y="13" width="36" height="36"/><use href="#prop-sea-pearl" x="16" y="16" width="33" height="33"/></symbol><symbol id="prop-sea-chest" viewBox="0 0 100 100"><rect x="7" y="38" width="86" height="58" fill="#82644b" stroke="#183f49" stroke-width="3" rx="7"></rect><path d="M7 39Q50-2 93 39Z" fill="#297989" stroke="#183f49" stroke-width="3" stroke-linecap="round" stroke-linejoin="round"></path><line x1="23" y1="28" x2="23" y2="94" stroke="#b89857" stroke-width="6" stroke-linecap="round"></line><line x1="78" y1="27" x2="78" y2="94" stroke="#b89857" stroke-width="6" stroke-linecap="round"></line><path d="M65.0 64.0L64.5 66.8L63.5 69.4L62.1 71.8L60.2 73.8L58.0 75.4L55.6 76.5L53.1 77.2L50.5 77.3L48.0 77.0L45.6 76.2L43.5 74.9L41.7 73.3L40.2 71.5L39.2 69.4L38.6 67.2L38.4 64.9L38.6 62.7L39.3 60.6L40.3 58.7L41.6 57.1L43.2 55.8L45.0 54.9L46.9 54.3L48.8 54.1L50.7 54.2L52.5 54.8L54.1 55.6L55.5 56.7L56.7 58.0L57.5 59.5L58.0 61.1L58.2 62.7L58.1 64.3L57.7 65.8L57.0 67.1L56.2 68.3L55.1 69.2L53.9 69.9L52.6 70.4L51.3 70.5L50.0 70.5L48.8 70.1L47.8 69.6L46.9 68.9L46.1 68.1L45.6 67.1L45.3 66.2L45.1 65.2L45.2 64.2L45.5 63.3L45.9 62.5L46.4 61.9L47.0 61.4L47.7 61.0L48.4 60.8L49.1 60.8L49.7 60.9L50.3 61.1L50.8 61.4L51.2 61.8L51.4 62.2L51.6 62.7L51.6 63.1L51.6 63.5" fill="none" stroke="#ead8aa" stroke-width="3" stroke-linecap="round" stroke-linejoin="round"></path></symbol><symbol id="prop-sea-gauge" viewBox="0 0 100 100"><rect x="29" y="5" width="43" height="91" fill="#ead8aa" stroke="#183f49" stroke-width="3" rx="4"></rect><line x1="33" y1="15" x2="55" y2="15" stroke="#297989" stroke-width="3" stroke-linecap="round"></line><line x1="33" y1="25" x2="55" y2="25" stroke="#297989" stroke-width="3" stroke-linecap="round"></line><line x1="33" y1="35" x2="55" y2="35" stroke="#297989" stroke-width="3" stroke-linecap="round"></line><line x1="33" y1="45" x2="55" y2="45" stroke="#297989" stroke-width="3" stroke-linecap="round"></line><line x1="33" y1="55" x2="55" y2="55" stroke="#297989" stroke-width="3" stroke-linecap="round"></line><line x1="33" y1="65" x2="55" y2="65" stroke="#297989" stroke-width="3" stroke-linecap="round"></line><line x1="33" y1="75" x2="55" y2="75" stroke="#297989" stroke-width="3" stroke-linecap="round"></line><line x1="33" y1="85" x2="55" y2="85" stroke="#297989" stroke-width="3" stroke-linecap="round"></line><rect x="64" y="52" width="18" height="11" fill="#db8250" stroke="#183f49" stroke-width="2" rx="0"></rect></symbol><symbol id="prop-sea-valve" viewBox="0 0 100 100"><ellipse cx="50" cy="50" rx="37" ry="37" fill="#297989" stroke="#b89857" stroke-width="6"></ellipse><path d="M77.0 50.0L76.1 55.1L74.3 59.8L71.7 64.1L68.4 67.7L64.5 70.5L60.1 72.6L55.6 73.7L50.9 74.0L46.4 73.4L42.2 71.9L38.3 69.7L35.1 66.8L32.4 63.4L30.5 59.7L29.4 55.7L29.1 51.6L29.5 47.7L30.7 43.9L32.5 40.5L34.9 37.6L37.8 35.3L41.0 33.6L44.4 32.5L47.9 32.1L51.3 32.4L54.5 33.4L57.4 34.9L60.0 36.8L62.0 39.2L63.5 41.9L64.5 44.7L64.8 47.7L64.6 50.5L63.9 53.2L62.7 55.6L61.1 57.7L59.1 59.4L57.0 60.7L54.7 61.5L52.3 61.8L50.1 61.6L47.9 61.1L46.0 60.1L44.3 58.8L43.0 57.3L42.1 55.7L41.5 53.9L41.2 52.1L41.4 50.4L41.8 48.8L42.6 47.4L43.5 46.2L44.7 45.3L45.9 44.7L47.1 44.3L48.4 44.2L49.5 44.4L50.6 44.8L51.4 45.3L52.1 46.0L52.6 46.8L52.9 47.6L53.0 48.4L52.9 49.1" fill="none" stroke="#ead8aa" stroke-width="3" stroke-linecap="round" stroke-linejoin="round"></path><line x1="50" y1="50" x2="80.0" y2="50.0" stroke="#b89857" stroke-width="5" stroke-linecap="round"></line><line x1="50" y1="50" x2="34.85461686200427" y2="75.89628099946621" stroke="#b89857" stroke-width="5" stroke-linecap="round"></line><line x1="50" y1="50" x2="35.292175359779016" y2="23.852726827592356" stroke="#b89857" stroke-width="5" stroke-linecap="round"></line><rect x="38" y="84" width="24" height="12" fill="#82644b" stroke="#183f49" stroke-width="2" rx="0"></rect></symbol><symbol id="prop-sea-scrolls" viewBox="0 0 100 100"><rect x="8" y="8" width="84" height="90" fill="#82644b" stroke="#183f49" stroke-width="3" rx="5"></rect><rect x="17" y="33" width="66" height="6" fill="#b89857" stroke="#183f49" stroke-width="1" rx="0"></rect><ellipse cx="26" cy="25" rx="7" ry="10" fill="#ead8aa" stroke="#183f49" stroke-width="2"></ellipse><ellipse cx="45" cy="25" rx="7" ry="10" fill="#ead8aa" stroke="#183f49" stroke-width="2"></ellipse><ellipse cx="64" cy="25" rx="7" ry="10" fill="#ead8aa" stroke="#183f49" stroke-width="2"></ellipse><ellipse cx="79" cy="25" rx="7" ry="10" fill="#ead8aa" stroke="#183f49" stroke-width="2"></ellipse><rect x="17" y="61" width="66" height="6" fill="#b89857" stroke="#183f49" stroke-width="1" rx="0"></rect><ellipse cx="26" cy="53" rx="7" ry="10" fill="#ead8aa" stroke="#183f49" stroke-width="2"></ellipse><ellipse cx="45" cy="53" rx="7" ry="10" fill="#ead8aa" stroke="#183f49" stroke-width="2"></ellipse><ellipse cx="64" cy="53" rx="7" ry="10" fill="#ead8aa" stroke="#183f49" stroke-width="2"></ellipse><ellipse cx="79" cy="53" rx="7" ry="10" fill="#ead8aa" stroke="#183f49" stroke-width="2"></ellipse><rect x="17" y="89" width="66" height="6" fill="#b89857" stroke="#183f49" stroke-width="1" rx="0"></rect><ellipse cx="26" cy="81" rx="7" ry="10" fill="#ead8aa" stroke="#183f49" stroke-width="2"></ellipse><ellipse cx="45" cy="81" rx="7" ry="10" fill="#ead8aa" stroke="#183f49" stroke-width="2"></ellipse><ellipse cx="64" cy="81" rx="7" ry="10" fill="#ead8aa" stroke="#183f49" stroke-width="2"></ellipse><ellipse cx="79" cy="81" rx="7" ry="10" fill="#ead8aa" stroke="#183f49" stroke-width="2"></ellipse></symbol><symbol id="prop-sea-gong" viewBox="0 0 100 100"><path d="M10 96V8H90V96" fill="none" stroke="#82644b" stroke-width="7" stroke-linecap="round" stroke-linejoin="round"></path><line x1="50" y1="10" x2="50" y2="22" stroke="#b89857" stroke-width="3" stroke-linecap="round"></line><ellipse cx="50" cy="49" rx="28" ry="29" fill="#b89857" stroke="#183f49" stroke-width="3"></ellipse><path d="M68.0 49.0L67.4 52.4L66.2 55.5L64.5 58.4L62.3 60.8L59.6 62.7L56.8 64.1L53.7 64.8L50.6 65.0L47.6 64.6L44.8 63.6L42.2 62.1L40.0 60.2L38.3 58.0L37.0 55.5L36.3 52.8L36.0 50.1L36.3 47.5L37.1 45.0L38.3 42.7L40.0 40.8L41.9 39.2L44.0 38.0L46.3 37.3L48.6 37.1L50.9 37.3L53.0 37.9L55.0 38.9L56.6 40.2L58.0 41.8L59.0 43.6L59.6 45.5L59.9 47.4L59.7 49.3L59.3 51.1L58.5 52.7L57.4 54.1L56.1 55.3L54.7 56.1L53.1 56.6L51.6 56.8L50.0 56.7L48.6 56.4L47.3 55.7L46.2 54.9L45.3 53.9L44.7 52.8L44.3 51.6L44.2 50.4L44.3 49.3L44.6 48.2L45.0 47.3L45.7 46.5L46.4 45.9L47.2 45.4L48.1 45.2L48.9 45.2L49.7 45.3L50.4 45.5L51.0 45.9L51.4 46.4L51.7 46.9L51.9 47.4L52.0 47.9L51.9 48.4" fill="none" stroke="#297989" stroke-width="3" stroke-linecap="round" stroke-linejoin="round"></path></symbol><symbol id="prop-sea-bottles" viewBox="0 0 100 100"><use href="#prop-sea-table" x="0" y="0" width="100" height="100"/><path d="M23 8v12q-9 7-7 19h21q3-12-7-19V8Z" fill="#3faaa8" stroke="#b89857" stroke-width="2" stroke-linecap="round" stroke-linejoin="round"></path><path d="M53 8v12q-9 7-7 19h21q3-12-7-19V8Z" fill="#3faaa8" stroke="#b89857" stroke-width="2" stroke-linecap="round" stroke-linejoin="round"></path><path d="M78 8v12q-9 7-7 19h21q3-12-7-19V8Z" fill="#3faaa8" stroke="#b89857" stroke-width="2" stroke-linecap="round" stroke-linejoin="round"></path></symbol><linearGradient id="material-wood" x2="0" y2="1"><stop offset="0%" stop-color="#ae8e64"></stop><stop offset="100%" stop-color="#534b3e"></stop></linearGradient><linearGradient id="material-stone" x2="0" y2="1"><stop offset="0%" stop-color="#c3d2af"></stop><stop offset="100%" stop-color="#63877e"></stop></linearGradient><linearGradient id="material-cloth" x2="0" y2="1"><stop offset="0%" stop-color="#4799a2"></stop><stop offset="100%" stop-color="#23535f"></stop></linearGradient></defs><g data-support="dock"><line x1="90" y1="1320" x2="90" y2="1405" stroke="#82644b" stroke-width="11" stroke-linecap="round"></line><line x1="81" y1="1345" x2="99" y2="1345" stroke="#ead8aa" stroke-width="5" stroke-linecap="round"></line><path d="M82 1355q-14 13 1 25m5-12q18 15-2 25" fill="none" stroke="#668e59" stroke-width="6" stroke-linecap="round" stroke-linejoin="round"></path><line x1="2510" y1="1320" x2="2510" y2="1405" stroke="#82644b" stroke-width="11" stroke-linecap="round"></line><line x1="2501" y1="1345" x2="2519" y2="1345" stroke="#ead8aa" stroke-width="5" stroke-linecap="round"></line><path d="M2502 1355q-14 13 1 25m5-12q18 15-2 25" fill="none" stroke="#668e59" stroke-width="6" stroke-linecap="round" stroke-linejoin="round"></path><path d="M100 1329l60 100M2500 1329l-60 100" fill="none" stroke="#82644b" stroke-width="7" stroke-linecap="round" stroke-linejoin="round"></path></g><g data-support="dock"><line x1="220" y1="1132" x2="220" y2="1405" stroke="#82644b" stroke-width="11" stroke-linecap="round"></line><line x1="211" y1="1157" x2="229" y2="1157" stroke="#ead8aa" stroke-width="5" stroke-linecap="round"></line><path d="M212 1355q-14 13 1 25m5-12q18 15-2 25" fill="none" stroke="#668e59" stroke-width="6" stroke-linecap="round" stroke-linejoin="round"></path><line x1="670" y1="1132" x2="670" y2="1405" stroke="#82644b" stroke-width="11" stroke-linecap="round"></line><line x1="661" y1="1157" x2="679" y2="1157" stroke="#ead8aa" stroke-width="5" stroke-linecap="round"></line><path d="M662 1355q-14 13 1 25m5-12q18 15-2 25" fill="none" stroke="#668e59" stroke-width="6" stroke-linecap="round" stroke-linejoin="round"></path><path d="M230 1141l60 100M660 1141l-60 100" fill="none" stroke="#82644b" stroke-width="7" stroke-linecap="round" stroke-linejoin="round"></path></g><g data-support="dock"><line x1="980" y1="1106" x2="980" y2="1405" stroke="#82644b" stroke-width="11" stroke-linecap="round"></line><line x1="971" y1="1131" x2="989" y2="1131" stroke="#ead8aa" stroke-width="5" stroke-linecap="round"></line><path d="M972 1355q-14 13 1 25m5-12q18 15-2 25" fill="none" stroke="#668e59" stroke-width="6" stroke-linecap="round" stroke-linejoin="round"></path><line x1="1440" y1="1106" x2="1440" y2="1405" stroke="#82644b" stroke-width="11" stroke-linecap="round"></line><line x1="1431" y1="1131" x2="1449" y2="1131" stroke="#ead8aa" stroke-width="5" stroke-linecap="round"></line><path d="M1432 1355q-14 13 1 25m5-12q18 15-2 25" fill="none" stroke="#668e59" stroke-width="6" stroke-linecap="round" stroke-linejoin="round"></path><path d="M990 1115l60 100M1430 1115l-60 100" fill="none" stroke="#82644b" stroke-width="7" stroke-linecap="round" stroke-linejoin="round"></path></g><g data-support="dock"><line x1="1760" y1="1132" x2="1760" y2="1405" stroke="#82644b" stroke-width="11" stroke-linecap="round"></line><line x1="1751" y1="1157" x2="1769" y2="1157" stroke="#ead8aa" stroke-width="5" stroke-linecap="round"></line><path d="M1752 1355q-14 13 1 25m5-12q18 15-2 25" fill="none" stroke="#668e59" stroke-width="6" stroke-linecap="round" stroke-linejoin="round"></path><line x1="2300" y1="1132" x2="2300" y2="1405" stroke="#82644b" stroke-width="11" stroke-linecap="round"></line><line x1="2291" y1="1157" x2="2309" y2="1157" stroke="#ead8aa" stroke-width="5" stroke-linecap="round"></line><path d="M2292 1355q-14 13 1 25m5-12q18 15-2 25" fill="none" stroke="#668e59" stroke-width="6" stroke-linecap="round" stroke-linejoin="round"></path><path d="M1770 1141l60 100M2290 1141l-60 100" fill="none" stroke="#82644b" stroke-width="7" stroke-linecap="round" stroke-linejoin="round"></path></g><g data-support="dock"><line x1="240" y1="704" x2="240" y2="1405" stroke="#82644b" stroke-width="11" stroke-linecap="round"></line><line x1="231" y1="729" x2="249" y2="729" stroke="#ead8aa" stroke-width="5" stroke-linecap="round"></line><path d="M232 1355q-14 13 1 25m5-12q18 15-2 25" fill="none" stroke="#668e59" stroke-width="6" stroke-linecap="round" stroke-linejoin="round"></path><line x1="700" y1="704" x2="700" y2="1405" stroke="#82644b" stroke-width="11" stroke-linecap="round"></line><line x1="691" y1="729" x2="709" y2="729" stroke="#ead8aa" stroke-width="5" stroke-linecap="round"></line><path d="M692 1355q-14 13 1 25m5-12q18 15-2 25" fill="none" stroke="#668e59" stroke-width="6" stroke-linecap="round" stroke-linejoin="round"></path><path d="M250 713l60 100M690 713l-60 100" fill="none" stroke="#82644b" stroke-width="7" stroke-linecap="round" stroke-linejoin="round"></path></g><g data-support="dock"><line x1="970" y1="654" x2="970" y2="1405" stroke="#82644b" stroke-width="11" stroke-linecap="round"></line><line x1="961" y1="679" x2="979" y2="679" stroke="#ead8aa" stroke-width="5" stroke-linecap="round"></line><path d="M962 1355q-14 13 1 25m5-12q18 15-2 25" fill="none" stroke="#668e59" stroke-width="6" stroke-linecap="round" stroke-linejoin="round"></path><line x1="1470" y1="654" x2="1470" y2="1405" stroke="#82644b" stroke-width="11" stroke-linecap="round"></line><line x1="1461" y1="679" x2="1479" y2="679" stroke="#ead8aa" stroke-width="5" stroke-linecap="round"></line><path d="M1462 1355q-14 13 1 25m5-12q18 15-2 25" fill="none" stroke="#668e59" stroke-width="6" stroke-linecap="round" stroke-linejoin="round"></path><path d="M980 663l60 100M1460 663l-60 100" fill="none" stroke="#82644b" stroke-width="7" stroke-linecap="round" stroke-linejoin="round"></path></g><g data-support="dock"><line x1="1820" y1="679" x2="1820" y2="1405" stroke="#82644b" stroke-width="11" stroke-linecap="round"></line><line x1="1811" y1="704" x2="1829" y2="704" stroke="#ead8aa" stroke-width="5" stroke-linecap="round"></line><path d="M1812 1355q-14 13 1 25m5-12q18 15-2 25" fill="none" stroke="#668e59" stroke-width="6" stroke-linecap="round" stroke-linejoin="round"></path><line x1="2310" y1="679" x2="2310" y2="1405" stroke="#82644b" stroke-width="11" stroke-linecap="round"></line><line x1="2301" y1="704" x2="2319" y2="704" stroke="#ead8aa" stroke-width="5" stroke-linecap="round"></line><path d="M2302 1355q-14 13 1 25m5-12q18 15-2 25" fill="none" stroke="#668e59" stroke-width="6" stroke-linecap="round" stroke-linejoin="round"></path><path d="M1830 688l60 100M2300 688l-60 100" fill="none" stroke="#82644b" stroke-width="7" stroke-linecap="round" stroke-linejoin="round"></path></g><g data-support="dock"><line x1="670" y1="378" x2="670" y2="1405" stroke="#82644b" stroke-width="11" stroke-linecap="round"></line><line x1="661" y1="403" x2="679" y2="403" stroke="#ead8aa" stroke-width="5" stroke-linecap="round"></line><path d="M662 1355q-14 13 1 25m5-12q18 15-2 25" fill="none" stroke="#668e59" stroke-width="6" stroke-linecap="round" stroke-linejoin="round"></path><line x1="1890" y1="378" x2="1890" y2="1405" stroke="#82644b" stroke-width="11" stroke-linecap="round"></line><line x1="1881" y1="403" x2="1899" y2="403" stroke="#ead8aa" stroke-width="5" stroke-linecap="round"></line><path d="M1882 1355q-14 13 1 25m5-12q18 15-2 25" fill="none" stroke="#668e59" stroke-width="6" stroke-linecap="round" stroke-linejoin="round"></path><path d="M680 387l60 100M1880 387l-60 100" fill="none" stroke="#82644b" stroke-width="7" stroke-linecap="round" stroke-linejoin="round"></path></g><g data-support="dock"><line x1="1440" y1="931" x2="1440" y2="1405" stroke="#82644b" stroke-width="11" stroke-linecap="round"></line><line x1="1431" y1="956" x2="1449" y2="956" stroke="#ead8aa" stroke-width="5" stroke-linecap="round"></line><path d="M1432 1355q-14 13 1 25m5-12q18 15-2 25" fill="none" stroke="#668e59" stroke-width="6" stroke-linecap="round" stroke-linejoin="round"></path><line x1="1650" y1="931" x2="1650" y2="1405" stroke="#82644b" stroke-width="11" stroke-linecap="round"></line><line x1="1641" y1="956" x2="1659" y2="956" stroke="#ead8aa" stroke-width="5" stroke-linecap="round"></line><path d="M1642 1355q-14 13 1 25m5-12q18 15-2 25" fill="none" stroke="#668e59" stroke-width="6" stroke-linecap="round" stroke-linejoin="round"></path><path d="M1450 940l60 100M1640 940l-60 100" fill="none" stroke="#82644b" stroke-width="7" stroke-linecap="round" stroke-linejoin="round"></path></g><g data-feature="cistern"><rect x="1812.0" y="877.0" width="436.0" height="210.0" fill="url(#material-cloth)" stroke="#183f49" stroke-width="4" rx="50"></rect><rect x="1790.2" y="919.0" width="479.6" height="14" fill="#b89857" stroke="#183f49" stroke-width="2" rx="6"></rect><rect x="1790.2" y="997.0" width="479.6" height="14" fill="#b89857" stroke="#183f49" stroke-width="2" rx="6"></rect><rect x="1790.2" y="1072.0" width="479.6" height="14" fill="#b89857" stroke="#183f49" stroke-width="2" rx="6"></rect><ellipse cx="2030.0" cy="877.0" rx="218.0" ry="30.0" fill="#3faaa8" stroke="#b89857" stroke-width="5"></ellipse><use href="#prop-sea-valve" x="1948.25" y="970.0" width="163.5" height="114.0"/></g><g data-feature="sluice"><line x1="1002.5" y1="339" x2="1002.5" y2="639" stroke="#82644b" stroke-width="14" stroke-linecap="round"></line><line x1="1437.5" y1="339" x2="1437.5" y2="639" stroke="#82644b" stroke-width="14" stroke-linecap="round"></line><line x1="1002.5" y1="339" x2="1437.5" y2="339" stroke="#82644b" stroke-width="16" stroke-linecap="round"></line><line x1="1037" y1="387.0" x2="1037" y2="609" stroke="#b89857" stroke-width="12" stroke-linecap="round"></line><line x1="1077" y1="387.0" x2="1077" y2="609" stroke="#b89857" stroke-width="12" stroke-linecap="round"></line><line x1="1117" y1="387.0" x2="1117" y2="609" stroke="#b89857" stroke-width="12" stroke-linecap="round"></line><line x1="1157" y1="387.0" x2="1157" y2="609" stroke="#b89857" stroke-width="12" stroke-linecap="round"></line><line x1="1197" y1="387.0" x2="1197" y2="609" stroke="#b89857" stroke-width="12" stroke-linecap="round"></line><line x1="1237" y1="387.0" x2="1237" y2="609" stroke="#b89857" stroke-width="12" stroke-linecap="round"></line><line x1="1277" y1="387.0" x2="1277" y2="609" stroke="#b89857" stroke-width="12" stroke-linecap="round"></line><line x1="1317" y1="387.0" x2="1317" y2="609" stroke="#b89857" stroke-width="12" stroke-linecap="round"></line><line x1="1357" y1="387.0" x2="1357" y2="609" stroke="#b89857" stroke-width="12" stroke-linecap="round"></line><line x1="1397" y1="387.0" x2="1397" y2="609" stroke="#b89857" stroke-width="12" stroke-linecap="round"></line><rect x="1022.5" y="504.0" width="395" height="17" fill="url(#material-cloth)" stroke="#183f49" stroke-width="3" rx="0"></rect><use href="#prop-sea-valve" x="1144.25" y="492.0" width="151.5" height="114.0"/></g><g data-feature="cistern"><rect x="1867.0" y="424.0" width="396.0" height="210.0" fill="url(#material-cloth)" stroke="#183f49" stroke-width="4" rx="50"></rect><rect x="1847.2" y="466.0" width="435.6" height="14" fill="#b89857" stroke="#183f49" stroke-width="2" rx="6"></rect><rect x="1847.2" y="544.0" width="435.6" height="14" fill="#b89857" stroke="#183f49" stroke-width="2" rx="6"></rect><rect x="1847.2" y="619.0" width="435.6" height="14" fill="#b89857" stroke="#183f49" stroke-width="2" rx="6"></rect><ellipse cx="2065.0" cy="424.0" rx="198.0" ry="30.0" fill="#3faaa8" stroke="#b89857" stroke-width="5"></ellipse><use href="#prop-sea-valve" x="1990.75" y="517.0" width="148.5" height="114.0"/></g><g id="climb-1" data-kind="stairs"><path d="M215.0 1305.0L253.3 1305.0L253.3 1273.7L291.7 1273.7L291.7 1242.3L330.0 1242.3L330.0 1211.0L368.3 1211.0L368.3 1179.7L406.7 1179.7L406.7 1148.3L445.0 1148.3L445.0 1117.0" fill="none" stroke="#183f49" stroke-width="13" stroke-linecap="round" stroke-linejoin="round"></path><path d="M215.0 1305.0L253.3 1305.0L253.3 1273.7L291.7 1273.7L291.7 1242.3L330.0 1242.3L330.0 1211.0L368.3 1211.0L368.3 1179.7L406.7 1179.7L406.7 1148.3L445.0 1148.3L445.0 1117.0" fill="none" stroke="#ead8aa" stroke-width="7" stroke-linecap="round" stroke-linejoin="round"></path><line x1="212.0" y1="1260" x2="445.0" y2="1072" stroke="#82644b" stroke-width="5" stroke-linecap="round"></line><line x1="215.0" y1="1260.0" x2="215.0" y2="1297.0" stroke="#82644b" stroke-width="3" stroke-linecap="round"></line><line x1="272.5" y1="1213.0" x2="272.5" y2="1250.0" stroke="#82644b" stroke-width="3" stroke-linecap="round"></line><line x1="330.0" y1="1166.0" x2="330.0" y2="1203.0" stroke="#82644b" stroke-width="3" stroke-linecap="round"></line><line x1="387.5" y1="1119.0" x2="387.5" y2="1156.0" stroke="#82644b" stroke-width="3" stroke-linecap="round"></line><line x1="445.0" y1="1072.0" x2="445.0" y2="1109.0" stroke="#82644b" stroke-width="3" stroke-linecap="round"></line></g><g id="climb-2" data-kind="rope"><ellipse cx="1210.0" cy="1083" rx="9" ry="9" fill="url(#material-wood)" stroke="#183f49" stroke-width="2"></ellipse><path d="M1210.0 1091Q1200.0 1198.0 1210.0 1305" fill="none" stroke="#183f49" stroke-width="8" stroke-linecap="round" stroke-linejoin="round"></path><path d="M1210.0 1091Q1200.0 1198.0 1210.0 1305" fill="none" stroke="#ead8aa" stroke-width="4" stroke-linecap="round" stroke-linejoin="round"></path><line x1="1203.0" y1="1116" x2="1215.0" y2="1119" stroke="#82644b" stroke-width="3" stroke-linecap="round"></line><line x1="1203.0" y1="1146" x2="1215.0" y2="1149" stroke="#82644b" stroke-width="3" stroke-linecap="round"></line><line x1="1203.0" y1="1176" x2="1215.0" y2="1179" stroke="#82644b" stroke-width="3" stroke-linecap="round"></line><line x1="1203.0" y1="1206" x2="1215.0" y2="1209" stroke="#82644b" stroke-width="3" stroke-linecap="round"></line><line x1="1203.0" y1="1236" x2="1215.0" y2="1239" stroke="#82644b" stroke-width="3" stroke-linecap="round"></line><line x1="1203.0" y1="1266" x2="1215.0" y2="1269" stroke="#82644b" stroke-width="3" stroke-linecap="round"></line><line x1="1203.0" y1="1296" x2="1215.0" y2="1299" stroke="#82644b" stroke-width="3" stroke-linecap="round"></line></g><g id="climb-3" data-kind="ladder"><line x1="2015.0" y1="1099" x2="2015.0" y2="1305" stroke="#183f49" stroke-width="8" stroke-linecap="round"></line><line x1="2045.0" y1="1099" x2="2045.0" y2="1305" stroke="#183f49" stroke-width="8" stroke-linecap="round"></line><line x1="2015.0" y1="1099" x2="2015.0" y2="1305" stroke="#82644b" stroke-width="4" stroke-linecap="round"></line><line x1="2045.0" y1="1099" x2="2045.0" y2="1305" stroke="#82644b" stroke-width="4" stroke-linecap="round"></line><line x1="2017.0" y1="1125" x2="2043.0" y2="1125" stroke="#ead8aa" stroke-width="5" stroke-linecap="round"></line><line x1="2017.0" y1="1149" x2="2043.0" y2="1149" stroke="#ead8aa" stroke-width="5" stroke-linecap="round"></line><line x1="2017.0" y1="1173" x2="2043.0" y2="1173" stroke="#ead8aa" stroke-width="5" stroke-linecap="round"></line><line x1="2017.0" y1="1197" x2="2043.0" y2="1197" stroke="#ead8aa" stroke-width="5" stroke-linecap="round"></line><line x1="2017.0" y1="1221" x2="2043.0" y2="1221" stroke="#ead8aa" stroke-width="5" stroke-linecap="round"></line><line x1="2017.0" y1="1245" x2="2043.0" y2="1245" stroke="#ead8aa" stroke-width="5" stroke-linecap="round"></line><line x1="2017.0" y1="1269" x2="2043.0" y2="1269" stroke="#ead8aa" stroke-width="5" stroke-linecap="round"></line><line x1="2017.0" y1="1293" x2="2043.0" y2="1293" stroke="#ead8aa" stroke-width="5" stroke-linecap="round"></line></g><g id="climb-4" data-kind="stairs"><path d="M230.0 1117.0L246.4 1117.0L246.4 1086.4L262.9 1086.4L262.9 1055.9L279.3 1055.9L279.3 1025.3L295.7 1025.3L295.7 994.7L312.1 994.7L312.1 964.1L328.6 964.1L328.6 933.6L345.0 933.6L345.0 903.0L361.4 903.0L361.4 872.4L377.9 872.4L377.9 841.9L394.3 841.9L394.3 811.3L410.7 811.3L410.7 780.7L427.1 780.7L427.1 750.1L443.6 750.1L443.6 719.6L460.0 719.6L460.0 689.0" fill="none" stroke="#183f49" stroke-width="13" stroke-linecap="round" stroke-linejoin="round"></path><path d="M230.0 1117.0L246.4 1117.0L246.4 1086.4L262.9 1086.4L262.9 1055.9L279.3 1055.9L279.3 1025.3L295.7 1025.3L295.7 994.7L312.1 994.7L312.1 964.1L328.6 964.1L328.6 933.6L345.0 933.6L345.0 903.0L361.4 903.0L361.4 872.4L377.9 872.4L377.9 841.9L394.3 841.9L394.3 811.3L410.7 811.3L410.7 780.7L427.1 780.7L427.1 750.1L443.6 750.1L443.6 719.6L460.0 719.6L460.0 689.0" fill="none" stroke="#ead8aa" stroke-width="7" stroke-linecap="round" stroke-linejoin="round"></path><line x1="227.0" y1="1072" x2="460.0" y2="644" stroke="#82644b" stroke-width="5" stroke-linecap="round"></line><line x1="230.0" y1="1072.0" x2="230.0" y2="1109.0" stroke="#82644b" stroke-width="3" stroke-linecap="round"></line><line x1="287.5" y1="965.0" x2="287.5" y2="1002.0" stroke="#82644b" stroke-width="3" stroke-linecap="round"></line><line x1="345.0" y1="858.0" x2="345.0" y2="895.0" stroke="#82644b" stroke-width="3" stroke-linecap="round"></line><line x1="402.5" y1="751.0" x2="402.5" y2="788.0" stroke="#82644b" stroke-width="3" stroke-linecap="round"></line><line x1="460.0" y1="644.0" x2="460.0" y2="681.0" stroke="#82644b" stroke-width="3" stroke-linecap="round"></line></g><g id="climb-5" data-kind="ladder"><line x1="1435.0" y1="621" x2="1435.0" y2="916" stroke="#183f49" stroke-width="8" stroke-linecap="round"></line><line x1="1465.0" y1="621" x2="1465.0" y2="916" stroke="#183f49" stroke-width="8" stroke-linecap="round"></line><line x1="1435.0" y1="621" x2="1435.0" y2="916" stroke="#82644b" stroke-width="4" stroke-linecap="round"></line><line x1="1465.0" y1="621" x2="1465.0" y2="916" stroke="#82644b" stroke-width="4" stroke-linecap="round"></line><line x1="1437.0" y1="647" x2="1463.0" y2="647" stroke="#ead8aa" stroke-width="5" stroke-linecap="round"></line><line x1="1437.0" y1="671" x2="1463.0" y2="671" stroke="#ead8aa" stroke-width="5" stroke-linecap="round"></line><line x1="1437.0" y1="695" x2="1463.0" y2="695" stroke="#ead8aa" stroke-width="5" stroke-linecap="round"></line><line x1="1437.0" y1="719" x2="1463.0" y2="719" stroke="#ead8aa" stroke-width="5" stroke-linecap="round"></line><line x1="1437.0" y1="743" x2="1463.0" y2="743" stroke="#ead8aa" stroke-width="5" stroke-linecap="round"></line><line x1="1437.0" y1="767" x2="1463.0" y2="767" stroke="#ead8aa" stroke-width="5" stroke-linecap="round"></line><line x1="1437.0" y1="791" x2="1463.0" y2="791" stroke="#ead8aa" stroke-width="5" stroke-linecap="round"></line><line x1="1437.0" y1="815" x2="1463.0" y2="815" stroke="#ead8aa" stroke-width="5" stroke-linecap="round"></line><line x1="1437.0" y1="839" x2="1463.0" y2="839" stroke="#ead8aa" stroke-width="5" stroke-linecap="round"></line><line x1="1437.0" y1="863" x2="1463.0" y2="863" stroke="#ead8aa" stroke-width="5" stroke-linecap="round"></line><line x1="1437.0" y1="887" x2="1463.0" y2="887" stroke="#ead8aa" stroke-width="5" stroke-linecap="round"></line><line x1="1437.0" y1="911" x2="1463.0" y2="911" stroke="#ead8aa" stroke-width="5" stroke-linecap="round"></line></g><g id="climb-6" data-kind="rope"><ellipse cx="2065.0" cy="656" rx="9" ry="9" fill="url(#material-wood)" stroke="#183f49" stroke-width="2"></ellipse><path d="M2065.0 664Q2055.0 890.5 2065.0 1117" fill="none" stroke="#183f49" stroke-width="8" stroke-linecap="round" stroke-linejoin="round"></path><path d="M2065.0 664Q2055.0 890.5 2065.0 1117" fill="none" stroke="#ead8aa" stroke-width="4" stroke-linecap="round" stroke-linejoin="round"></path><line x1="2058.0" y1="689" x2="2070.0" y2="692" stroke="#82644b" stroke-width="3" stroke-linecap="round"></line><line x1="2058.0" y1="719" x2="2070.0" y2="722" stroke="#82644b" stroke-width="3" stroke-linecap="round"></line><line x1="2058.0" y1="749" x2="2070.0" y2="752" stroke="#82644b" stroke-width="3" stroke-linecap="round"></line><line x1="2058.0" y1="779" x2="2070.0" y2="782" stroke="#82644b" stroke-width="3" stroke-linecap="round"></line><line x1="2058.0" y1="809" x2="2070.0" y2="812" stroke="#82644b" stroke-width="3" stroke-linecap="round"></line><line x1="2058.0" y1="839" x2="2070.0" y2="842" stroke="#82644b" stroke-width="3" stroke-linecap="round"></line><line x1="2058.0" y1="869" x2="2070.0" y2="872" stroke="#82644b" stroke-width="3" stroke-linecap="round"></line><line x1="2058.0" y1="899" x2="2070.0" y2="902" stroke="#82644b" stroke-width="3" stroke-linecap="round"></line><line x1="2058.0" y1="929" x2="2070.0" y2="932" stroke="#82644b" stroke-width="3" stroke-linecap="round"></line><line x1="2058.0" y1="959" x2="2070.0" y2="962" stroke="#82644b" stroke-width="3" stroke-linecap="round"></line><line x1="2058.0" y1="989" x2="2070.0" y2="992" stroke="#82644b" stroke-width="3" stroke-linecap="round"></line><line x1="2058.0" y1="1019" x2="2070.0" y2="1022" stroke="#82644b" stroke-width="3" stroke-linecap="round"></line><line x1="2058.0" y1="1049" x2="2070.0" y2="1052" stroke="#82644b" stroke-width="3" stroke-linecap="round"></line><line x1="2058.0" y1="1079" x2="2070.0" y2="1082" stroke="#82644b" stroke-width="3" stroke-linecap="round"></line><line x1="2058.0" y1="1109" x2="2070.0" y2="1112" stroke="#82644b" stroke-width="3" stroke-linecap="round"></line></g><g id="climb-7" data-kind="rope"><ellipse cx="1220.0" cy="355" rx="9" ry="9" fill="url(#material-wood)" stroke="#183f49" stroke-width="2"></ellipse><path d="M1220.0 363Q1210.0 501.0 1220.0 639" fill="none" stroke="#183f49" stroke-width="8" stroke-linecap="round" stroke-linejoin="round"></path><path d="M1220.0 363Q1210.0 501.0 1220.0 639" fill="none" stroke="#ead8aa" stroke-width="4" stroke-linecap="round" stroke-linejoin="round"></path><line x1="1213.0" y1="388" x2="1225.0" y2="391" stroke="#82644b" stroke-width="3" stroke-linecap="round"></line><line x1="1213.0" y1="418" x2="1225.0" y2="421" stroke="#82644b" stroke-width="3" stroke-linecap="round"></line><line x1="1213.0" y1="448" x2="1225.0" y2="451" stroke="#82644b" stroke-width="3" stroke-linecap="round"></line><line x1="1213.0" y1="478" x2="1225.0" y2="481" stroke="#82644b" stroke-width="3" stroke-linecap="round"></line><line x1="1213.0" y1="508" x2="1225.0" y2="511" stroke="#82644b" stroke-width="3" stroke-linecap="round"></line><line x1="1213.0" y1="538" x2="1225.0" y2="541" stroke="#82644b" stroke-width="3" stroke-linecap="round"></line><line x1="1213.0" y1="568" x2="1225.0" y2="571" stroke="#82644b" stroke-width="3" stroke-linecap="round"></line><line x1="1213.0" y1="598" x2="1225.0" y2="601" stroke="#82644b" stroke-width="3" stroke-linecap="round"></line><line x1="1213.0" y1="628" x2="1225.0" y2="631" stroke="#82644b" stroke-width="3" stroke-linecap="round"></line></g><g id="climb-8" data-kind="ladder"><line x1="1530.0" y1="898" x2="1530.0" y2="1305" stroke="#183f49" stroke-width="8" stroke-linecap="round"></line><line x1="1560.0" y1="898" x2="1560.0" y2="1305" stroke="#183f49" stroke-width="8" stroke-linecap="round"></line><line x1="1530.0" y1="898" x2="1530.0" y2="1305" stroke="#82644b" stroke-width="4" stroke-linecap="round"></line><line x1="1560.0" y1="898" x2="1560.0" y2="1305" stroke="#82644b" stroke-width="4" stroke-linecap="round"></line><line x1="1532.0" y1="924" x2="1558.0" y2="924" stroke="#ead8aa" stroke-width="5" stroke-linecap="round"></line><line x1="1532.0" y1="948" x2="1558.0" y2="948" stroke="#ead8aa" stroke-width="5" stroke-linecap="round"></line><line x1="1532.0" y1="972" x2="1558.0" y2="972" stroke="#ead8aa" stroke-width="5" stroke-linecap="round"></line><line x1="1532.0" y1="996" x2="1558.0" y2="996" stroke="#ead8aa" stroke-width="5" stroke-linecap="round"></line><line x1="1532.0" y1="1020" x2="1558.0" y2="1020" stroke="#ead8aa" stroke-width="5" stroke-linecap="round"></line><line x1="1532.0" y1="1044" x2="1558.0" y2="1044" stroke="#ead8aa" stroke-width="5" stroke-linecap="round"></line><line x1="1532.0" y1="1068" x2="1558.0" y2="1068" stroke="#ead8aa" stroke-width="5" stroke-linecap="round"></line><line x1="1532.0" y1="1092" x2="1558.0" y2="1092" stroke="#ead8aa" stroke-width="5" stroke-linecap="round"></line><line x1="1532.0" y1="1116" x2="1558.0" y2="1116" stroke="#ead8aa" stroke-width="5" stroke-linecap="round"></line><line x1="1532.0" y1="1140" x2="1558.0" y2="1140" stroke="#ead8aa" stroke-width="5" stroke-linecap="round"></line><line x1="1532.0" y1="1164" x2="1558.0" y2="1164" stroke="#ead8aa" stroke-width="5" stroke-linecap="round"></line><line x1="1532.0" y1="1188" x2="1558.0" y2="1188" stroke="#ead8aa" stroke-width="5" stroke-linecap="round"></line><line x1="1532.0" y1="1212" x2="1558.0" y2="1212" stroke="#ead8aa" stroke-width="5" stroke-linecap="round"></line><line x1="1532.0" y1="1236" x2="1558.0" y2="1236" stroke="#ead8aa" stroke-width="5" stroke-linecap="round"></line><line x1="1532.0" y1="1260" x2="1558.0" y2="1260" stroke="#ead8aa" stroke-width="5" stroke-linecap="round"></line><line x1="1532.0" y1="1284" x2="1558.0" y2="1284" stroke="#ead8aa" stroke-width="5" stroke-linecap="round"></line></g></svg>